<svg version="1.2" xmlns="http://www.w3.org/2000/svg" viewBox="0 0 39 73" width="100" height="187">
	<title>ragam_logo-svg</title>
	<style>
		.s0 { fill: #000000 } 
	</style>
	<g id="Layer" style="opacity: .5">
		<path id="Layer" class="s0" d="m0.3 52.3c-1.1 9.3 0.5 13.7 5.5 20.4-5.1-11.7-5.3-16.8-1.3-23.3-0.4 6.5 0.4 9.5 3 14-2.6-9.4-1.2-15.5 5-27.6-6.6 5.2-9.5 8.7-12.2 16.5z"/>
		<path id="Layer" class="s0" d="m32.8 54.9c-1.4-11.3-4.1-16.6-12-24.4 6.8 2.3 9.7 4.5 13.8 9.4 4.8 6.3 5.6 11.1 2.6 22.6 1.2-10.4-0.1-14.9-5.1-21.1 1.6 5.8 1.6 8.7 0.7 13.5z"/>
		<path id="Layer" class="s0" d="m8.2 37.1c3.1-7.4 3.5-11.8 2-20.2l4 5.3c4-5.2 5.1-10.2 5.3-22.2 1.1 11.5 0.5 17.5-3.9 27.3-2.6 4.5-4.3 6.6-7.4 9.8z"/>
		<path id="Layer" class="s0" d="m21.6 2.9c1 10.5 0.8 16.2-0.8 26.1l2.9-9.6 1.3 6.2 2.1-4c1.1 7.2 3.1 10.5 7 16.3-3.8-10.1-4.9-16-3.2-27.1-2 2.2-3 3.4-4.7 5.6-2.4-4.5-3.3-7.6-4.6-13.5z"/>
		<path id="Layer" class="s0" d="m8.3 48.5c5.3-14.2 11.7-19.5 11.7-27.5 0.5 4.3 0.2 6.7-1.5 10.8 0.1 1.3-4.4 8.6-7.2 17.6-2.8 9.1 6.4 18.4 13.7 13.1 4.8-3.4 3.7-7.3 2.1-13.1-1.8 3.7-3.2 5.4-6.3 7.8 3.3-6.1 4.7-9.8 6.3-17.3 3.8 7.6 4.8 12.2 3.6 20.5-0.5 3-5.4 10.7-12.8 9.9-9.4-1.9-12.1-9.2-9.6-21.8z"/>
	</g>
</svg>